<svg id="b6fe4ea4-91cd-4e88-acbb-2663d3326f54" data-name="Layer 1" xmlns="http://www.w3.org/2000/svg" width="1013.02965" height="844.99456" viewBox="0 0 1013.02965 844.99456"><title>new_ideas</title><path d="M1050.48389,297.81272c0,35.17-8.33,64.12-22.7799,88.92a177.67758,177.67758,0,0,1-16.19,23.25c-53.12,64.97-151.88,100.53-241.14,158.13-263.48,170.02-292.02-102.42-280.12-270.3,4.8-67.74,31.18-129.79,73.09-177.3a278.22062,278.22062,0,0,1,28.45-27.97c47.58-40.52,109.05-65.04,178.58-65.04,119.29,0,221.16,71.95,261.55,173.34a261.84957,261.84957,0,0,1,18.55993,96.97Z" transform="translate(-93.48517 -27.50272)" fill="#ef1eb7"/><path d="M830.054,88.4227l-266.71,32.09a278.22062,278.22062,0,0,1,28.45-27.97Z" transform="translate(-93.48517 -27.50272)" fill="#d0cde1"/><path d="M1027.704,386.7327a177.67758,177.67758,0,0,1-16.19,23.25l-228.46-27.48Z" transform="translate(-93.48517 -27.50272)" fill="#d0cde1"/><path d="M1041.2439,228.72269l-387.18994-50.22,377.87,22.34A260.439,260.439,0,0,1,1041.2439,228.72269Z" transform="translate(-93.48517 -27.50272)" fill="#d0cde1"/><path d="M516.51853,99.50486c0,.69-.02,1.37-.08,2.04a27.99706,27.99706,0,1,1-52.68-15.11,25.73956,25.73956,0,0,1,2.06-3.31,27.9889,27.9889,0,0,1,50.6,14.1C516.4885,97.97483,516.51853,98.73484,516.51853,99.50486Z" transform="translate(-93.48517 -27.50272)" fill="#ef1eb7"/><path d="M516.51853,99.50486c0,.69-.02,1.37-.08,2.04l-41.92-5.04,41.9.72C516.4885,97.97483,516.51853,98.73484,516.51853,99.50486Z" transform="translate(-93.48517 -27.50272)" fill="#d0cde1"/><path d="M506.51853,113.61484l-38.78,4.67a28.05694,28.05694,0,0,1-2.96-3.95Z" transform="translate(-93.48517 -27.50272)" fill="#d0cde1"/><path d="M495.51853,82.61484l-31.76,3.82a25.73956,25.73956,0,0,1,2.06-3.31Z" transform="translate(-93.48517 -27.50272)" fill="#d0cde1"/><path d="M900.25143,603.63055c-.32346.60949-.65991,1.20075-1.027,1.76443a27.99706,27.99706,0,1,1-39.45-38.042,25.73938,25.73938,0,0,1,3.37127-1.9581,27.98891,27.98891,0,0,1,38.08621,36.17477C900.94214,602.265,900.61239,602.95037,900.25143,603.63055Z" transform="translate(-93.48517 -27.50272)" fill="#ef1eb7"/><path d="M900.25143,603.63055c-.32346.60949-.65991,1.20075-1.027,1.76443L864.5584,581.29206l36.67354,20.27763C900.94214,602.265,900.61239,602.95037,900.25143,603.63055Z" transform="translate(-93.48517 -27.50272)" fill="#d0cde1"/><path d="M884.80385,611.4064l-36.44426-14.054a28.05745,28.05745,0,0,1-.76292-4.87668Z" transform="translate(-93.48517 -27.50272)" fill="#d0cde1"/><path d="M889.61936,578.867l-29.8449-11.514a25.73938,25.73938,0,0,1,3.37127-1.9581Z" transform="translate(-93.48517 -27.50272)" fill="#d0cde1"/><path d="M1098.56381,120.95526c.48176.494.9422.99477,1.367,1.5163a27.99707,27.99707,0,1,1-48.26355,25.96387,25.73851,25.73851,0,0,1-.83628-3.80793,27.9889,27.9889,0,0,1,46.06931-25.23471C1097.47405,119.88088,1098.02619,120.404,1098.56381,120.95526Z" transform="translate(-93.48517 -27.50272)" fill="#ef1eb7"/><path d="M1098.56381,120.95526c.48176.494.9422.99477,1.367,1.5163l-33.52955,25.66038,30.499-28.73915C1097.47405,119.88088,1098.02619,120.404,1098.56381,120.95526Z" transform="translate(-93.48517 -27.50272)" fill="#d0cde1"/><path d="M1101.25637,138.03864l-24.50216,30.41946a28.0572,28.0572,0,0,1-4.87694-.76118Z" transform="translate(-93.48517 -27.50272)" fill="#d0cde1"/><path d="M1071.73725,123.52584l-20.07,24.90959a25.73851,25.73851,0,0,1-.83628-3.80793Z" transform="translate(-93.48517 -27.50272)" fill="#d0cde1"/><path d="M573.26553,636.95591s61.44557,2.56024,61.44557,17.92163-69.12627,0-69.12627,0Z" transform="translate(-93.48517 -27.50272)" fill="#a0616a"/><path d="M481.09717,872.49728l-115.21045-7.6807L360.76625,803.371l-25.60232,53.76488-112.65022-15.3614c2.56023-97.28882,43.524-192.01741,46.08418-204.81858s8.67923-65.69564,8.67923-65.69564c11.1882-23.73325,69.81727-25.96064,115.77362-23.81013,19.04829.87055,35.94576,2.509,46.36577,3.68674,6.88688.768,10.95787,1.33137,10.95787,1.33137,18.35667,18.92015,30.18524,44.70155,37.45621,73.50417C514.04734,729.73871,481.09717,872.49728,481.09717,872.49728Z" transform="translate(-93.48517 -27.50272)" fill="#2f2e41"/><circle cx="259.60038" cy="187.01487" r="64.00581" fill="#a0616a"/><path d="M309.56161,229.879S291.64,309.24619,263.47743,332.28828s110.09,0,110.09,0-30.72278-51.20465-7.68069-74.24674S309.56161,229.879,309.56161,229.879Z" transform="translate(-93.48517 -27.50272)" fill="#a0616a"/><path d="M440.13345,557.58871,397.659,562.29945,278.83882,575.51034s-.56318-1.51061-1.5617-4.25007c-8.628-23.52854-50.18049-138.022-54.76341-172.406-5.12046-38.40349,48.64441-84.48767,48.64441-84.48767s51.20465-10.24093,66.566-10.24093,76.807,23.04209,76.807,23.04209l22.914,206.12433,1.97143,17.84474Z" transform="translate(-93.48517 -27.50272)" fill="#d0cde1"/><path d="M487.83059,625.97242,401.73,575.51034s-1.51076-4.91576-4.071-13.21089c-1.28011-4.14756-2.8415-9.16551-4.60823-14.84931-9.93371-31.90055-26.60085-84.53892-39.96518-122.9935-20.48186-58.88534,79.36719,104.96952,79.36719,104.96952l4.99233,3.866,1.97143,17.84474c6.88688.768,10.95787,1.33137,10.95787,1.33137C468.73105,571.3884,480.55962,597.1698,487.83059,625.97242Z" transform="translate(-93.48517 -27.50272)" opacity="0.15"/><path d="M373.56741,332.28828s-25.60232,33.283-5.12046,92.16836,48.64441,151.0537,48.64441,151.0537l148.49347,87.0479,20.48186-25.60233L447.81415,529.42616s-5.12047-194.57765-30.72279-202.25835S373.56741,332.28828,373.56741,332.28828Z" transform="translate(-93.48517 -27.50272)" fill="#d0cde1"/><path d="M246.83592,556.3086s35.84325,74.24673,51.20464,66.566S259.63708,538.387,259.63708,538.387Z" transform="translate(-93.48517 -27.50272)" fill="#a0616a"/><path d="M242.99557,352.77013,107.30326,465.42035s-51.20464,35.84326,43.524,61.44558S253.2365,567.82964,253.2365,567.82964s10.24093-33.283,23.04209-28.16255l-110.09-53.76488,89.60813-53.76488Z" transform="translate(-93.48517 -27.50272)" fill="#d0cde1"/><path d="M188.45949,267.05154c7.12167-3.52691,22.84789-10.64479,36.24333-19.2202-.93932-27.89762,2.49607-53.22261,12.55222-66.64662,5.64462-12.81652,17.49793-25.6481,26.7814-35.75325,22.798-24.81537,73.20958-38.66708,82.15062-26.26844,67.62534,1.33509,74.74468,54.34307,74.74468,54.34307-.3518,22.17187-23.39557,22.87345-43.58176,22.0655,1.80765,15.13647-3.00971,30.86424-16.95952,37.83915-26.676,13.338-34.67888,30.67741-21.34081,42.68173s37.3465,44.01548,5.33523,52.01821-36.01275,24.00854-26.676,30.67752S296.36792,346.784,296.36792,346.784s-5.33512,32.01127-33.345,24.00842c-2.51013-.71721-5.01892-2.55489-7.48541-5.30331-7.56478,8.312-14.31345,13.22658-19.39967,13.25359-29.13026.15447-25.63705-32.10971-25.63705-32.10971s-34.57609,9.71049-23.7871,5.80578,11.25117-20.39647-17.4169-36.73375S172.37879,275.015,188.45949,267.05154Z" transform="translate(-93.48517 -27.50272)" fill="#2f2e41"/><path d="M545.869,350.68362l-.46437-.06122,1.13287,4.30643a113.17562,113.17562,0,0,0,4.65,17.67685L584.41385,498.9135a21.40811,21.40811,0,0,0,17.43077,15.71007l67.75971,10.48261a21.408,21.408,0,0,0,22.1461-11.05183l64.39386-120.27626a113.00339,113.00339,0,0,0,5.50835-10.28834l2.18627-4.08367-.34094-.04495a113.84725,113.84725,0,1,0-217.629-28.67751Z" transform="translate(-93.48517 -27.50272)" fill="#3f3d56"/><path d="M673.7627,533.3584a23.29759,23.29759,0,0,1-3.56446-.27442l-70.82763-10.958a23.3712,23.3712,0,0,1-19.03418-17.15528L545.606,372.94482a119.05567,119.05567,0,0,1-4.87793-18.55615l-.87842-5.77588A120.02561,120.02561,0,0,1,677.24219,214.74951l-.30664,1.97656a118.0685,118.0685,0,0,0-134.93116,132.9126l.6753,4.32031a118.2809,118.2809,0,0,0,4.83691,18.39991l34.7544,132.103a21.36975,21.36975,0,0,0,17.40527,15.6875l70.82764,10.958a21.407,21.407,0,0,0,22.11425-11.03613l1.76368.94336A23.42072,23.42072,0,0,1,673.7627,533.3584Z" transform="translate(-93.48517 -27.50272)" fill="#d0cde1"/><rect x="608.73851" y="437.37967" width="125.31395" height="2.58676" transform="translate(-64.90222 890.7514) rotate(-69.88499)" fill="#d0cde1"/><rect x="621.52776" y="368.50149" width="2.58676" height="125.31395" transform="translate(-111.81076 0.25189) rotate(-2.51583)" fill="#d0cde1"/><path d="M667.77507,593.21348l-90.75733-14.04041a2.587,2.587,0,0,1,.791-5.11309l90.75733,14.04041a2.587,2.587,0,1,1-.791,5.11309Z" transform="translate(-93.48517 -27.50272)" fill="#3f3d56"/><path d="M670.10222,573.94052l-90.75733-14.04041a2.587,2.587,0,1,1,.791-5.11309l90.75734,14.04041a2.587,2.587,0,1,1-.791,5.11309Z" transform="translate(-93.48517 -27.50272)" fill="#3f3d56"/><path d="M672.42937,554.66756,581.672,540.62715a2.587,2.587,0,0,1,.791-5.11309l90.75733,14.04041a2.587,2.587,0,0,1-.791,5.11309Z" transform="translate(-93.48517 -27.50272)" fill="#3f3d56"/><path d="M619.57535,604.42863c18.00222,2.785,34.1481-4.99048,36.06278-17.367l-65.19188-10.08536C588.53156,589.35278,601.57312,601.64364,619.57535,604.42863Z" transform="translate(-93.48517 -27.50272)" fill="#3f3d56"/><path d="M652.19879,354.60221c-3.87236-.59843-7.07617-3.65939-8.83264-5.711-.57595-.67259-1.1365-1.37029-1.69874-2.06952-2.04551-2.54625-3.97681-4.95084-6.66642-6.20478-5.93686-2.76991-12.93209,1.099-18.98864,5.24984l-1.46325-2.13343c6.65876-4.56514,14.42362-8.78213,21.54579-5.46138,3.23493,1.50894,5.44871,4.26464,7.58906,6.92909.545.67867,1.089,1.35527,1.64693,2.00782,1.82636,2.13272,5.46883,5.58876,9.37174,4.79166a12.5979,12.5979,0,0,0,4.49545-2.37986,24.07683,24.07683,0,0,1,3.18135-2.00734,12.66906,12.66906,0,0,1,13.90684,1.96545,25.02449,25.02449,0,0,1,1.88717,1.99578c1.16372,1.32656,2.26229,2.5785,3.69247,3.03366,2.11435.676,4.349-.53253,6.71686-1.80932,2.442-1.31774,4.96637-2.68088,7.8299-2.34462.09286.01117.18677.02378.27915.03807,5.09561.78831,7.44484,6.42363,8.77412,10.62937l-2.46725.7789c-1.80618-5.71683-4.00582-8.55982-6.889-8.87675-2.05123-.24128-4.114.87246-6.298,2.05116-2.7378,1.4784-5.57148,3.00651-8.7311,1.99813-2.11483-.67292-3.5069-2.2585-4.852-3.79208a22.79725,22.79725,0,0,0-1.68845-1.79311,10.16528,10.16528,0,0,0-11.01236-1.55665,21.837,21.837,0,0,0-2.83631,1.80124,14.69665,14.69665,0,0,1-5.46961,2.80242A8.504,8.504,0,0,1,652.19879,354.60221Z" transform="translate(-93.48517 -27.50272)" fill="#d0cde1"/></svg>
<svg id="ffe6bee8-e793-4e33-a4ab-3e285c6a5a44" data-name="Layer 1" xmlns="http://www.w3.org/2000/svg" xmlns:xlink="http://www.w3.org/1999/xlink" width="998.95" height="833.99" viewBox="0 0 998.95 833.99"><defs><linearGradient id="8849c9b4-5ff8-40d0-8d32-f1e3227b06d9" x1="499.14" y1="857.42" x2="499.14" y2="171.42" gradientUnits="userSpaceOnUse"><stop offset="0" stop-color="gray" stop-opacity="0.25"/><stop offset="0.54" stop-color="gray" stop-opacity="0.12"/><stop offset="1" stop-color="gray" stop-opacity="0.1"/></linearGradient></defs><title>blank canvas</title><path d="M424.35,62.67c29.21-26,75.06-31.33,116.8-29.26,131.09,6.52,249.42,69.8,351.78,141.39,37.06,25.91,73.54,53.84,97.59,89.53,49,72.65,34.44,173.29-33.64,233.14-23.17,20.36-51.25,36-80.08,49.81-51.26,24.6-106.57,44.35-164.75,50-41.48,4-83.48.75-124.73-4.84C472.09,576.78,359,542.22,264.17,483.1,222.59,457.17,183.4,424.93,166.26,383S160.09,287.87,202.55,263c17.56-10.27,38.56-14.91,59.11-19.27,30.26-6.41,61-12.73,88.3-25.76,28.21-13.46,61.6-39.49,56-69.29C400,116.75,395.18,88.67,424.35,62.67Z" transform="translate(-100.52 -33.01)" fill="#dc25b7" opacity="0.1"/><path d="M785.47,701.9s25.06-44.39,62.79-57.18a77.24,77.24,0,0,0,39.12-29.26,129.52,129.52,0,0,0,11.54-20.76" transform="translate(-100.52 -33.01)" fill="none" stroke="#535461" stroke-miterlimit="10" stroke-width="2"/><path d="M922.66,586.49c-4.3,4.18-24.33,8.49-24.33,8.49s4.91-19.89,9.21-24.06a10.85,10.85,0,0,1,15.12,15.57Z" transform="translate(-100.52 -33.01)" fill="#dc25b7"/><path d="M911.33,622.48c-5.88,1.17-25-6.09-25-6.09s14.94-14,20.81-15.2a10.85,10.85,0,0,1,4.23,21.29Z" transform="translate(-100.52 -33.01)" fill="#dc25b7"/><path d="M870.08,661.42c-5.67-2-18.54-17.9-18.54-17.9s20-4.56,25.64-2.6a10.85,10.85,0,1,1-7.1,20.5Z" transform="translate(-100.52 -33.01)" fill="#dc25b7"/><path d="M832.23,683.86c-5.91-1-21.29-14.51-21.29-14.51s18.91-7.88,24.82-6.9a10.85,10.85,0,1,1-3.53,21.41Z" transform="translate(-100.52 -33.01)" fill="#dc25b7"/><path d="M869.59,600.85c0,6,10.84,23.37,10.84,23.37s10.86-17.37,10.86-23.36a10.85,10.85,0,1,0-21.7,0Z" transform="translate(-100.52 -33.01)" fill="#dc25b7"/><path d="M825.66,627.65c1.8,5.72,17.34,19.06,17.34,19.06s5.16-19.83,3.37-25.55a10.85,10.85,0,0,0-20.71,6.49Z" transform="translate(-100.52 -33.01)" fill="#dc25b7"/><path d="M786.54,659.55c.8,5.94,13.87,21.72,13.87,21.72s8.44-18.67,7.64-24.61a10.85,10.85,0,0,0-21.51,2.89Z" transform="translate(-100.52 -33.01)" fill="#dc25b7"/><path d="M922.66,586.49c-4.3,4.18-24.33,8.49-24.33,8.49s4.91-19.89,9.21-24.06a10.85,10.85,0,0,1,15.12,15.57Z" transform="translate(-100.52 -33.01)" opacity="0.25"/><path d="M911.33,622.48c-5.88,1.17-25-6.09-25-6.09s14.94-14,20.81-15.2a10.85,10.85,0,0,1,4.23,21.29Z" transform="translate(-100.52 -33.01)" opacity="0.25"/><path d="M870.08,661.42c-5.67-2-18.54-17.9-18.54-17.9s20-4.56,25.64-2.6a10.85,10.85,0,1,1-7.1,20.5Z" transform="translate(-100.52 -33.01)" opacity="0.25"/><path d="M832.23,683.86c-5.91-1-21.29-14.51-21.29-14.51s18.91-7.88,24.82-6.9a10.85,10.85,0,1,1-3.53,21.41Z" transform="translate(-100.52 -33.01)" opacity="0.25"/><path d="M869.59,600.85c0,6,10.84,23.37,10.84,23.37s10.86-17.37,10.86-23.36a10.85,10.85,0,1,0-21.7,0Z" transform="translate(-100.52 -33.01)" opacity="0.25"/><path d="M825.66,627.65c1.8,5.72,17.34,19.06,17.34,19.06s5.16-19.83,3.37-25.55a10.85,10.85,0,0,0-20.71,6.49Z" transform="translate(-100.52 -33.01)" opacity="0.25"/><path d="M786.54,659.55c.8,5.94,13.87,21.72,13.87,21.72s8.44-18.67,7.64-24.61a10.85,10.85,0,0,0-21.51,2.89Z" transform="translate(-100.52 -33.01)" opacity="0.25"/><path d="M786.91,701s4.92-50.74,34.24-77.72a77.24,77.24,0,0,0,23.9-42.61A129.14,129.14,0,0,0,847.19,557" transform="translate(-100.52 -33.01)" fill="none" stroke="#535461" stroke-miterlimit="10" stroke-width="2"/><path d="M865.56,539.92c-2.24,5.56-18.8,17.62-18.8,17.62s-3.56-20.18-1.32-25.73a10.85,10.85,0,1,1,20.12,8.11Z" transform="translate(-100.52 -33.01)" fill="#dc25b7"/><path d="M869.79,577.41c-4.9,3.45-25.36,4.57-25.36,4.57s8-18.87,12.87-22.32a10.85,10.85,0,0,1,12.49,17.75Z" transform="translate(-100.52 -33.01)" fill="#dc25b7"/><path d="M847.86,629.73c-6,.5-24.2-8.86-24.2-8.86S840.07,608.61,846,608.1a10.85,10.85,0,0,1,1.82,21.63Z" transform="translate(-100.52 -33.01)" fill="#dc25b7"/><path d="M822.35,665.58c-5.8,1.5-25.34-4.64-25.34-4.64s14.09-14.87,19.89-16.37a10.85,10.85,0,1,1,5.45,21Z" transform="translate(-100.52 -33.01)" fill="#dc25b7"/><path d="M822.87,574.54c2.42,5.48,19.38,17,19.38,17s2.89-20.28.46-25.76a10.85,10.85,0,0,0-19.84,8.78Z" transform="translate(-100.52 -33.01)" fill="#dc25b7"/><path d="M793.57,616.85c3.95,4.5,23.57,10.4,23.57,10.4s-3.31-20.22-7.27-24.72a10.85,10.85,0,1,0-16.3,14.32Z" transform="translate(-100.52 -33.01)" fill="#dc25b7"/><path d="M770.73,661.87c3.14,5.11,21.48,14.23,21.48,14.23s.15-20.48-3-25.59a10.85,10.85,0,1,0-18.49,11.36Z" transform="translate(-100.52 -33.01)" fill="#dc25b7"/><ellipse cx="374.17" cy="814.05" rx="118.88" ry="19.93" fill="#dc25b7" opacity="0.1"/><ellipse cx="608.16" cy="661.06" rx="118.88" ry="19.93" fill="#dc25b7" opacity="0.1"/><polygon points="616.05 398.03 615.94 401.92 609.18 640.44 597.82 640.44 603.39 401.92 603.5 397.43 616.05 398.03" fill="#b77b7f"/><polygon points="681.82 600.09 673.31 600.07 546.87 599.8 540.13 599.79 543.72 588.73 680.92 588.73 681.82 600.09" fill="#dda2a6"/><polygon points="616.05 398.03 615.94 401.92 603.39 401.92 603.5 397.43 616.05 398.03" opacity="0.1"/><rect x="599.77" y="392.2" width="21.07" height="7.93" fill="#b77b7f"/><polygon points="547.99 588.73 546.87 599.8 540.13 599.79 543.72 588.73 547.99 588.73" opacity="0.1"/><polygon points="566.14 392.05 565.79 395.49 537.74 672.13 524.89 671.52 554.45 395.49 554.78 392.35 566.14 392.05" fill="#dda2a6"/><polygon points="681.82 600.09 673.31 600.07 672.16 588.73 680.92 588.73 681.82 600.09" opacity="0.1"/><polygon points="695.27 671.52 682.41 672.13 654.37 395.49 654.02 392.05 665.37 392.35 665.7 395.49 695.27 671.52" fill="#dda2a6"/><rect x="466.6" y="119.3" width="283.36" height="271.7" fill="#fff"/><path d="M714.33,61.44v65.61H703.28V61.44a5.53,5.53,0,1,1,11.05,0Z" transform="translate(-100.52 -33.01)" fill="#dda2a6"/><rect x="602.75" y="88.07" width="11.06" height="5.97" opacity="0.1"/><path d="M718.67,125.56v21.66H699V125.56a2.68,2.68,0,0,1,2.69-2.69H716A2.69,2.69,0,0,1,718.67,125.56Z" transform="translate(-100.52 -33.01)" fill="#dda2a6"/><circle cx="608.28" cy="103.61" r="4.18" opacity="0.1"/><circle cx="608.28" cy="102.71" r="4.18" fill="#b77b7f"/><rect x="598.42" y="111.53" width="19.73" height="2.69" opacity="0.1"/><rect x="590.35" y="115.12" width="35.87" height="5.98" opacity="0.1"/><rect x="590.35" y="113.32" width="35.87" height="5.98" fill="#dda2a6"/><path d="M535.72,384H686.37a6.5,6.5,0,0,1,6.5,6.5v1.42a0,0,0,0,1,0,0H529.22a0,0,0,0,1,0,0v-1.42A6.5,6.5,0,0,1,535.72,384Z" opacity="0.1"/><polygon points="554.78 392.35 566.14 392.05 565.79 395.49 554.45 395.49 554.78 392.35" opacity="0.1"/><rect x="599.77" y="392.2" width="21.07" height="3.29" opacity="0.1"/><polygon points="665.7 395.49 654.37 395.49 654.02 392.05 665.37 392.35 665.7 395.49" opacity="0.1"/><path d="M535.72,385.77H686.37a6.5,6.5,0,0,1,6.5,6.5v1.42a0,0,0,0,1,0,0H529.22a0,0,0,0,1,0,0v-1.42A6.5,6.5,0,0,1,535.72,385.77Z" fill="#dda2a6"/><path d="M603.21,292.64c-2.27-1.2-27-19.88-27-19.88l-39.91-25.31s-.21-.6-.59-1.63c10.95-12.43,8.56-30.47-2.58-43.15-13.5-15.38-74.5-48.49-92.88-20.17-2.57,4-2.66,8.54-3.33,12.94-1.57,10.27-6.63,20.22-14.57,28.6-6.12,6.47-14.15,12.43-17.67,19.75,0-.09-.07-.18-.1-.28a18.36,18.36,0,0,0-1.83,5C401,257.44,407,266,410.19,274.69a47.5,47.5,0,0,1,2.32,9.08c.08-.62.15-1.23.22-1.85a58.06,58.06,0,0,1,.79,13.36c-22.15,4.51-22.16,42.4-22.16,42.4s-2.73,15.06-2.27,20.49.45,17.17.45,20-2.73,20.48-3,22.6a.51.51,0,0,1,0,.09c-.4,2.32-4.55,13.5,5.48,16,.7.18,1.44.33,2.21.47.43,9.05,1.21,28,.52,32.22,0,0,3.65,25.46,6.68,31.93a73.44,73.44,0,0,0,6.7,10.82,11.92,11.92,0,0,1-1.54,4.39c-1.55,2.23-.75,4.06,1.84,4.85-.09.77-.19,1.64-.3,2.62-1.11,9.82-2.77,29.34.05,39.23,3.87,13.56,4.1,18.08,4.1,18.08s0,4.06,1.6,6.32,4.55,23.28,4.55,26.67,7.74,33.89,5.46,41.12-.45,17.4-.45,17.4-1.37,17.85-3,21.69-2.28,65.75.22,81.79,4.1,29.37,4.1,29.37-1.59,14.69-.23,16.72,3.87,14.24,2.05,14.91-2.73,5.65-2.73,5.65a50.39,50.39,0,0,0,3.11,4.23,17,17,0,0,1-2.05-.87c.72,1,1.8,2.42,3.13,4l-1.25,16.25a2.72,2.72,0,0,0,2,2.85,22.87,22.87,0,0,0,22.62-6.36c11.38-11.52,15.25-9.94,17.3-16.94.22-.75.41-1.49.57-2.19,1.47-6.24-5.18-10.88-10.47-8.22.73-4.94,1.3-10.55.75-13.72-1.14-6.55-.91-23.72-.91-23.72l-1.59-82.25s2.95-16.27,6.37-22.59,3-28.47,3-28.47l3.87-72.76,3.64-35.47s3.64-12.2,8.19,1.36c0,0-2.5,27.33-1.36,33.89s2.73,38.41,1.59,45.41-6.14,45.42-3,55.13S486,694.15,485.3,698s-3,87.21-3,87.21,6.15,16,1.6,21.24-.23,26-.23,26,.55.39,1.49.93l-.13,1.73-1.43,18.69a2.74,2.74,0,0,0,2,2.86,22.86,22.86,0,0,0,22.62-6.36c11.38-11.53,15.25-9.94,17.3-16.95.22-.75.41-1.48.58-2.19,1.6-6.81-6.5-11.75-11.92-7.3l-.27.23a9.41,9.41,0,0,1-.89.67,4.3,4.3,0,0,1-.45.29c1.14-5.16,2.8-14,2-18.14-1.14-6.1,1.13-24.62,1.13-24.62s6.6-22.15,6.83-31l1.82-70.49s-.22-28.7.69-35.7,8.19-67.56,15.47-85.64c5.59-13.84,8.09-49.16,6.61-67.07-.08-.88-.16-1.73-.26-2.52,8.93-6.59,9.82-17.55,9.82-17.55s-8.2-15.66-16.09-22.29S531,432,531.28,427.15a11.88,11.88,0,0,0-2.73-8.13s-3.64-11.75-6.07-12.95a1.9,1.9,0,0,1-.53-.4c-1.65-1.77-.38-6.83-.38-6.83l0-.16c.29-1.17,2-8.75,1.49-10.69-.61-2.1.3-12.05.3-12.05s5.77-17.17,4.86-30.73,11.84-12.35,11.84-12.35l39.37-.41,4.48,0a31.53,31.53,0,0,0,4.31-4.46c7.5-.89,22.67-3.72,24.37-12C614.9,305,605.49,293.85,603.21,292.64ZM420.81,418l.27-6.89c.93.8,1.55,1.31,1.55,1.31a10.78,10.78,0,0,1,.07,5.52,5.89,5.89,0,0,1-3.41,3.82,4.14,4.14,0,0,0-.55.29l-.38-3.89Zm142.8-121c-1.67-.75-7.29-.6-10.18-.6s-7.58-2.41-7.58-2.41c-1-1.95-6.53-3.11-11.45-3.77-3.74-9.22-9-18.21-9.71-27.82,0-.35,0-.7-.05-1.05l.57,1s22.92,14.62,25.5,19c2,3.34,11.63,10.8,16.09,14.14a4.59,4.59,0,0,1-2.45,1.64A1.35,1.35,0,0,1,563.61,297Z" transform="translate(-100.52 -33.01)" fill="url(#8849c9b4-5ff8-40d0-8d32-f1e3227b06d9)"/><path d="M525.76,831.22c-.17.7-.35,1.43-.57,2.17-2,7-5.83,5.38-17,16.81a22.38,22.38,0,0,1-22.27,6.32,2.7,2.7,0,0,1-2-2.84l1.41-18.54.67-8.92s17.84,5,26.92-1.35a10.77,10.77,0,0,0,.88-.67A2.75,2.75,0,0,0,514,824,7.29,7.29,0,0,1,525.76,831.22Z" transform="translate(-100.52 -33.01)" fill="#67647e"/><path d="M469.76,824.22c-.17.7-.35,1.43-.57,2.17-2,7-5.83,5.38-17,16.81a22.38,22.38,0,0,1-22.27,6.32,2.7,2.7,0,0,1-2-2.84l1.41-18.54.67-8.92s17.84,5,26.92-1.35a10.77,10.77,0,0,0,.88-.67A2.75,2.75,0,0,0,458,817,7.29,7.29,0,0,1,469.76,824.22Z" transform="translate(-100.52 -33.01)" fill="#67647e"/><path d="M451.33,827l.72,9.64c-10.24,10.23-22.43-5-26-10C435.44,831.48,451.33,827,451.33,827Z" transform="translate(-100.52 -33.01)" opacity="0.1"/><path d="M511.52,830.92l1.34-.89c-9.35,14.22-23.24,7.66-27.57,5.11l.67-8.92s17.84,5,26.92-1.35C512.17,828.35,511.52,830.92,511.52,830.92Z" transform="translate(-100.52 -33.01)" opacity="0.1"/><path d="M540,561.69c-7.18,17.93-14.35,78-15.25,85s-.67,35.42-.67,35.42L522.28,752c-.23,8.75-6.73,30.72-6.73,30.72s-2.24,18.38-1.12,24.43-2.91,22-2.91,22l1.34-.9c-11.21,17-28.92,4.26-28.92,4.26s-4.26-20.62.23-25.78-1.57-21.07-1.57-21.07,2.24-82.72,2.91-86.53-2.69-15.47-5.83-25.11,1.8-47.75,2.92-54.7-.45-38.56-1.57-45.06,1.34-33.63,1.34-33.63c-4.48-13.45-8.07-1.34-8.07-1.34l-3.59,35.19-3.81,72.19s.45,22-2.91,28.25-6.28,22.41-6.28,22.41l1.57,81.61s-.22,17,.9,23.53-2.47,23.32-2.47,23.32C445.16,855.36,425,823.3,425,823.3s.9-4.93,2.69-5.6-.67-12.78-2-14.8.22-16.59.22-16.59-1.57-13.22-4-29.14-1.79-77.34-.22-81.15,2.91-21.52,2.91-21.52-1.79-10.09.45-17.27-5.38-37.43-5.38-40.8-2.91-24.21-4.48-26.45-1.57-6.28-1.57-6.28-.22-4.48-4-17.93c-2.78-9.82-1.14-29.18-.05-38.93.39-3.61.73-5.91.73-5.91S538.87,480.08,544,484.79c1.2,1.11,2,4.92,2.47,10.35C548,512.9,545.48,548,540,561.69Z" transform="translate(-100.52 -33.01)" fill="#444053"/><path d="M491.34,662.49c.6,0,14.8,1.2,20,.15S491.34,662.49,491.34,662.49Z" transform="translate(-100.52 -33.01)" opacity="0.1"/><path d="M492.39,670.86S512,674.3,513,672.51,492.39,670.86,492.39,670.86Z" transform="translate(-100.52 -33.01)" opacity="0.1"/><path d="M432.46,667.27s10.16.45,15.69,3S432.46,667.27,432.46,667.27Z" transform="translate(-100.52 -33.01)" opacity="0.1"/><path d="M395.54,415.9s1.64,31.23.75,36.76c0,0,3.58,25.26,6.57,31.68s9.42,14.5,9.42,14.5l8.82-62L419,415.6Z" transform="translate(-100.52 -33.01)" fill="#efb7b9"/><circle cx="387.68" cy="206.09" r="34.52" fill="#efb7b9"/><path d="M470.27,255.23s-10.76,21.08-21.52,30.94,64.56,21.07,66.35,21.07S501.65,262.41,504.34,257,470.27,255.23,470.27,255.23Z" transform="translate(-100.52 -33.01)" fill="#efb7b9"/><path d="M546.49,495.14a22.43,22.43,0,0,1-5.54,3.1c-13.74,5.38-28.69,12.85-38.85,9.87s-31.68,0-31.68,0-43.35-3.59-52-1.5c-3.94.95-7,.91-9,.23.39-3.61.73-5.91.73-5.91S538.87,480.08,544,484.79C545.22,485.9,546,489.71,546.49,495.14Z" transform="translate(-100.52 -33.01)" opacity="0.1"/><path d="M555.9,475.22s-1.19,14.95-14.95,20.33-28.69,12.85-38.85,9.87-31.68,0-31.68,0-43.35-3.59-52-1.5-13.16-.59-10.47-4.48,2.4-16.74,2.4-22.12-3-27.2-.31-31.09S415.12,427.4,420.5,425a5.86,5.86,0,0,0,3.36-3.79,10.84,10.84,0,0,0-.07-5.47s-.91-.75-2.16-1.86c-3.17-2.83-8.53-8.08-6.81-9.8,2.39-2.4,0-17.94,0-17.94s-5.68-11.95-3.58-16.43S393,341.61,393,341.61s0-40.64,24.51-42.44c0,0,17.34.6,19.43-7.17s15.84-12.26,15.84-12.26l31.39,6.88s27.79,6,32.88,2.39,9,4.78,9,4.78,17.33.9,19.12,4.49-5.67,38.55-5.67,38.55-12.56-1.19-11.66,12.26S523,379.58,523,379.58s-.9,9.86-.3,11.95c.56,1.93-1.18,9.45-1.46,10.61l0,.15s-1.25,5,.37,6.78a2,2,0,0,0,.52.4c2.4,1.19,6,12.85,6,12.85a11.83,11.83,0,0,1,2.69,8.07c-.29,4.79,1.5,16.14,9.27,22.72S555.9,475.22,555.9,475.22Z" transform="translate(-100.52 -33.01)" fill="#a36468"/><path d="M422.59,406l0,1.27-.54,14s-18.39,1.49-28.4-1-5.8-13.6-5.4-15.9a.37.37,0,0,0,0-.09c.29-2.1,3-19.58,3-22.42s0-14.5-.45-19.88S393,341.61,393,341.61l1.94-2.38L416,347.3Z" transform="translate(-100.52 -33.01)" fill="#a36468"/><path d="M422.54,407.3l-.54,14s-18.39,1.49-28.4-1-5.8-13.6-5.4-15.9Z" transform="translate(-100.52 -33.01)" opacity="0.1"/><path d="M423.86,421.22a10.84,10.84,0,0,0-.07-5.47s-.91-.75-2.16-1.86c15.83-2.21,78.52-10.81,99.63-11.75l0,.15s-1.25,5,.37,6.78Z" transform="translate(-100.52 -33.01)" opacity="0.1"/><path d="M523.62,432s3.89,22-10.61,29.74C513,461.78,521.23,450.87,523.62,432Z" transform="translate(-100.52 -33.01)" opacity="0.1"/><path d="M428.72,462.37s35-6,41.85-1.34S428.72,462.37,428.72,462.37Z" transform="translate(-100.52 -33.01)" opacity="0.1"/><path d="M511.52,326.22s-5.38,22.12-1.35,27.2S511.52,326.22,511.52,326.22Z" transform="translate(-100.52 -33.01)" opacity="0.1"/><path d="M410.19,308.14s4.93,8.22,1.94,16.74S410.19,308.14,410.19,308.14Z" transform="translate(-100.52 -33.01)" opacity="0.1"/><path d="M400,380.18s6.28,3.73,4.19,9.56S400,380.18,400,380.18Z" transform="translate(-100.52 -33.01)" opacity="0.1"/><path d="M399.43,363.14s5.82,3.14,6.57,7.77S399.43,363.14,399.43,363.14Z" transform="translate(-100.52 -33.01)" opacity="0.1"/><path d="M485.81,541.88s36.62,3.74,43.94-4.93C529.75,537,496.72,543.53,485.81,541.88Z" transform="translate(-100.52 -33.01)" opacity="0.1"/><path d="M422.59,539.79s39.31,9.27,47.08,1.94C469.67,541.73,435.89,544.27,422.59,539.79Z" transform="translate(-100.52 -33.01)" opacity="0.1"/><path d="M488.65,554s16.44,0,24.06.45S488.65,554,488.65,554Z" transform="translate(-100.52 -33.01)" opacity="0.1"/><path d="M425.28,561s8.07,9.12,17.19,7.48S425.28,561,425.28,561Z" transform="translate(-100.52 -33.01)" opacity="0.1"/><path d="M441.13,187.65c-2.53,3.93-2.62,8.48-3.28,12.84-1.54,10.19-6.53,20.06-14.34,28.38-7.17,7.62-17,14.53-18.86,23.84-1.76,8.84,4.21,17.35,7.34,26,8.25,22.69-3.27,46.49-6.63,69.91-.93,6.47.19,14.74,8.16,16.89,2.49.68,5.34.59,7.58,1.67,3,1.44,3.92,4.43,4.47,7.12a108.82,108.82,0,0,1,2.06,29.28c-.36,5.5-.76,11.83,4.44,15.61,2.36,1.73,5.54,2.61,8.61,3.44,8.19,2.21,18.78,4,24.3-1.19,2.32-2.17,3.19-5.23,6.08-6.95,4.33-2.57,10.47-.83,15.92-.56,11.19.56,21.47-6,25.88-13.91s4-17,2.4-25.53-4.46-17-4.66-25.66c-.07-3,.2-6.05,1.92-8.71,3.33-5.15,11.08-7.49,16.38-11.54,9.93-7.6,9.9-20.05,6.29-30.47S525.1,277.7,524.3,266.93a11.87,11.87,0,0,1,1.47-7.53c1.42-2.19,3.9-3.83,6-5.64,14.49-12.24,12.78-32.34.8-46.1C519.31,192.41,459.23,159.56,441.13,187.65Z" transform="translate(-100.52 -33.01)" fill="#e3787d"/><g opacity="0.1"><path d="M413.83,288.13c1.13-9.09.92-18.1-2.29-26.95-1.58-4.34-3.87-8.65-5.54-13a18.76,18.76,0,0,0-1.8,5c-1.76,8.84,4.21,17.35,7.34,26A47.28,47.28,0,0,1,413.83,288.13Z" transform="translate(-100.52 -33.01)"/><path d="M427.18,386.05a109.22,109.22,0,0,0-2.05-29.28c-.56-2.69-1.48-5.67-4.48-7.11-2.24-1.08-5.09-1-7.58-1.67a10.33,10.33,0,0,1-7-5.78c-.46,2.28-.86,4.55-1.19,6.83-.93,6.47.19,14.74,8.16,16.89,2.49.67,5.34.58,7.58,1.66,3,1.44,3.92,4.43,4.48,7.12a110.81,110.81,0,0,1,1.92,13.52C427.09,387.49,427.13,386.77,427.18,386.05Z" transform="translate(-100.52 -33.01)"/><path d="M512.42,382.5c-4.42,7.94-14.7,14.47-25.89,13.91-5.45-.28-11.59-2-15.91.56-2.89,1.71-3.77,4.78-6.09,6.95-5.52,5.15-16.11,3.4-24.3,1.19-3.07-.84-6.24-1.71-8.61-3.44a10.8,10.8,0,0,1-4.25-6.9c.06,3.07,0,6.15-.19,9.22-.36,5.5-.76,11.83,4.44,15.62,2.37,1.72,5.54,2.6,8.61,3.43,8.19,2.21,18.78,4,24.3-1.19,2.32-2.17,3.2-5.23,6.09-7,4.32-2.57,10.46-.83,15.91-.56,11.19.56,21.47-6,25.89-13.91,4.24-7.64,4.05-16.28,2.57-24.53A26.87,26.87,0,0,1,512.42,382.5Z" transform="translate(-100.52 -33.01)"/><path d="M531.36,236.28c-2.14,1.8-4.62,3.45-6,5.64a11.87,11.87,0,0,0-1.47,7.53,40.06,40.06,0,0,0,2.06,9.6,39.94,39.94,0,0,1,5.45-4.84c9.8-8.27,12.18-20.14,9-31.22A28.54,28.54,0,0,1,531.36,236.28Z" transform="translate(-100.52 -33.01)"/><path d="M528.45,311.05c-5.29,4.05-13.05,6.4-16.37,11.55-1.73,2.66-2,5.73-1.93,8.7a60.08,60.08,0,0,0,1.28,10.4,9.62,9.62,0,0,1,.65-1.17c3.32-5.15,11.08-7.49,16.37-11.54,9.07-6.94,9.83-17.92,7.15-27.71A20.76,20.76,0,0,1,528.45,311.05Z" transform="translate(-100.52 -33.01)"/></g><path d="M582.8,332.35s25.86-1.34,28.1-12.25-7-22-9.26-23.17S575,277.2,575,277.2l-39.3-25.1s-18.83-54-23-33.33,12.11,48.12,12.11,48.12,22.56,14.5,25.1,18.83S568,301.41,568,301.41Z" transform="translate(-100.52 -33.01)" fill="#efb7b9"/><path d="M596.7,314.71c-6.12,15.55-14.05,21.68-14.05,21.68l-4.41,0-38.77.4L535,324.58l6.28-26.46,3.88.16s4.64,2.39,7.47,2.39,8.38-.15,10,.59a1.23,1.23,0,0,0,.73.11c1.47-.15,3-2.35,3-2.35S602.83,299.17,596.7,314.71Z" transform="translate(-100.52 -33.01)" fill="#a36468"/><path d="M596.7,314.71c-6.12,15.55-14.05,21.68-14.05,21.68l-4.41,0c2.3-6.16,7.15-18.8,9-21.72,1.81-2.76-14.43-9.63-23.93-13.34,1.47-.15,3-2.35,3-2.35S602.83,299.17,596.7,314.71Z" transform="translate(-100.52 -33.01)" opacity="0.1"/><ellipse cx="90.82" cy="763.14" rx="44.18" ry="8.64" fill="#dc25b7" opacity="0.1"/><ellipse cx="827.28" cy="706.15" rx="32.18" ry="6.29" fill="#dc25b7" opacity="0.1"/><ellipse cx="966.77" cy="731.64" rx="32.18" ry="6.29" fill="#dc25b7" opacity="0.1"/><ellipse cx="750.78" cy="784.14" rx="32.18" ry="6.29" fill="#dc25b7" opacity="0.1"/><path d="M233.09,556.31s7.24,9.47-3.34,23.75S210.46,606.4,214,615.31c0,0,15.95-26.53,28.94-26.9S247.38,572.27,233.09,556.31Z" transform="translate(-100.52 -33.01)" fill="#dc25b7"/><path d="M233.09,556.31a11.79,11.79,0,0,1,1.48,3c12.67,14.89,19.42,28.78,7.24,29.13-11.34.32-24.95,20.61-28.21,25.73a9.44,9.44,0,0,0,.39,1.17s15.95-26.53,28.94-26.9S247.38,572.27,233.09,556.31Z" transform="translate(-100.52 -33.01)" opacity="0.1"/><path d="M246.54,568.37c0,3.33-.37,6-.83,6s-.84-2.7-.84-6,.47-1.76.93-1.76S246.54,565,246.54,568.37Z" transform="translate(-100.52 -33.01)" fill="#ffd037"/><path d="M251.16,572.35c-2.92,1.59-5.47,2.56-5.69,2.15s2-2,4.89-3.62,1.77-.43,2,0S254.08,570.75,251.16,572.35Z" transform="translate(-100.52 -33.01)" fill="#ffd037"/><path d="M194.88,556.31s-7.24,9.47,3.34,23.75S217.51,606.4,214,615.31c0,0-16-26.53-29-26.9S180.59,572.27,194.88,556.31Z" transform="translate(-100.52 -33.01)" fill="#dc25b7"/><path d="M194.88,556.31a11.79,11.79,0,0,0-1.48,3c-12.67,14.89-19.42,28.78-7.24,29.13,11.34.32,25,20.61,28.21,25.73a11.41,11.41,0,0,1-.38,1.17s-16-26.53-29-26.9S180.59,572.27,194.88,556.31Z" transform="translate(-100.52 -33.01)" opacity="0.1"/><path d="M181.43,568.37c0,3.33.37,6,.83,6s.84-2.7.84-6-.47-1.76-.93-1.76S181.43,565,181.43,568.37Z" transform="translate(-100.52 -33.01)" fill="#ffd037"/><path d="M176.81,572.35c2.93,1.59,5.47,2.56,5.7,2.15s-2-2-4.9-3.62-1.77-.43-2,0S173.89,570.75,176.81,572.35Z" transform="translate(-100.52 -33.01)" fill="#ffd037"/><ellipse cx="113.46" cy="643.07" rx="75.65" ry="11.61" fill="#dc25b7" opacity="0.1"/><path d="M252.92,602.56l-.36,3-.51,4.17-.21,1.74-.51,4.18-.22,1.74-.51,4.17L244.82,669c-.52,4.24-7.44,7.54-15.8,7.54H199c-8.36,0-15.27-3.3-15.79-7.54l-5.79-47.45-.51-4.17-.21-1.74-.52-4.18-.21-1.74-.51-4.17-.36-3c-.29-2.4,3.45-4.42,8.18-4.42h61.52C249.47,598.14,253.22,600.16,252.92,602.56Z" transform="translate(-100.52 -33.01)" fill="#65617d"/><polygon points="152.03 572.5 151.53 576.68 75.39 576.68 74.89 572.5 152.03 572.5" fill="#9d9cb5"/><polygon points="151.31 578.42 150.81 582.59 76.12 582.59 75.61 578.42 151.31 578.42" fill="#9d9cb5"/><polygon points="150.59 584.33 150.08 588.5 76.84 588.5 76.33 584.33 150.59 584.33" fill="#9d9cb5"/><circle cx="179.99" cy="124.52" r="31.5" fill="#dc25b7" opacity="0.1"/><circle cx="113.99" cy="49.52" r="19.5" fill="#dc25b7" opacity="0.1"/><circle cx="12" cy="93.02" r="12" fill="#dc25b7" opacity="0.1"/></svg>
<svg id="ffc6eb9a-0ec0-429c-85a8-ff38b44048bf" data-name="Layer 1" xmlns="http://www.w3.org/2000/svg" width="896" height="747.97143" viewBox="0 0 896 747.97143"><title>empty_cart</title><path d="M193.634,788.75225c12.42842,23.049,38.806,32.9435,38.806,32.9435s6.22712-27.47543-6.2013-50.52448-38.806-32.9435-38.806-32.9435S181.20559,765.7032,193.634,788.75225Z" transform="translate(-152 -76.01429)" fill="#2f2e41"/><path d="M202.17653,781.16927c22.43841,13.49969,31.08016,40.3138,31.08016,40.3138s-27.73812,4.92679-50.17653-8.57291S152,772.59636,152,772.59636,179.73811,767.66958,202.17653,781.16927Z" transform="translate(-152 -76.01429)" fill="#dc25b7"/><rect x="413.2485" y="35.90779" width="140" height="2" fill="#f2f2f2"/><rect x="513.2485" y="37.40779" width="2" height="18.5" fill="#f2f2f2"/><rect x="452.2485" y="37.40779" width="2" height="18.5" fill="#f2f2f2"/><rect x="484.2485" y="131.90779" width="140" height="2" fill="#f2f2f2"/><rect x="522.2485" y="113.90779" width="2" height="18.5" fill="#f2f2f2"/><rect x="583.2485" y="113.90779" width="2" height="18.5" fill="#f2f2f2"/><rect x="670.2485" y="176.90779" width="140" height="2" fill="#f2f2f2"/><rect x="708.2485" y="158.90779" width="2" height="18.5" fill="#f2f2f2"/><rect x="769.2485" y="158.90779" width="2" height="18.5" fill="#f2f2f2"/><rect x="656.2485" y="640.90779" width="140" height="2" fill="#f2f2f2"/><rect x="694.2485" y="622.90779" width="2" height="18.5" fill="#f2f2f2"/><rect x="755.2485" y="622.90779" width="2" height="18.5" fill="#f2f2f2"/><rect x="417.2485" y="319.90779" width="140" height="2" fill="#f2f2f2"/><rect x="455.2485" y="301.90779" width="2" height="18.5" fill="#f2f2f2"/><rect x="516.2485" y="301.90779" width="2" height="18.5" fill="#f2f2f2"/><rect x="461.2485" y="560.90779" width="140" height="2" fill="#f2f2f2"/><rect x="499.2485" y="542.90779" width="2" height="18.5" fill="#f2f2f2"/><rect x="560.2485" y="542.90779" width="2" height="18.5" fill="#f2f2f2"/><rect x="685.2485" y="487.90779" width="140" height="2" fill="#f2f2f2"/><rect x="723.2485" y="469.90779" width="2" height="18.5" fill="#f2f2f2"/><rect x="784.2485" y="469.90779" width="2" height="18.5" fill="#f2f2f2"/><polygon points="362.06 702.184 125.274 702.184 125.274 700.481 360.356 700.481 360.356 617.861 145.18 617.861 134.727 596.084 136.263 595.347 146.252 616.157 362.06 616.157 362.06 702.184" fill="#2f2e41"/><circle cx="156.78851" cy="726.03301" r="17.88673" fill="#3f3d56"/><circle cx="333.10053" cy="726.03301" r="17.88673" fill="#3f3d56"/><circle cx="540.92726" cy="346.153" r="11.07274" fill="#3f3d56"/><path d="M539.38538,665.76747H273.23673L215.64844,477.531H598.69256l-.34852,1.10753Zm-264.8885-1.7035H538.136l58.23417-184.82951H217.95082Z" transform="translate(-152 -76.01429)" fill="#2f2e41"/><polygon points="366.61 579.958 132.842 579.958 82.26 413.015 418.701 413.015 418.395 413.998 366.61 579.958" fill="#f2f2f2"/><polygon points="451.465 384.7 449.818 384.263 461.059 341.894 526.448 341.894 526.448 343.598 462.37 343.598 451.465 384.7" fill="#2f2e41"/><rect x="82.2584" y="458.58385" width="345.2931" height="1.7035" fill="#2f2e41"/><rect x="101.45894" y="521.34377" width="306.31852" height="1.7035" fill="#2f2e41"/><rect x="254.31376" y="402.36843" width="1.7035" height="186.53301" fill="#2f2e41"/><rect x="385.55745" y="570.79732" width="186.92877" height="1.70379" transform="translate(-274.73922 936.23495) rotate(-86.24919)" fill="#2f2e41"/><rect x="334.45728" y="478.18483" width="1.70379" height="186.92877" transform="translate(-188.46866 -52.99638) rotate(-3.729)" fill="#2f2e41"/><rect y="745" width="896" height="2" fill="#2f2e41"/><path d="M747.41068,137.89028s14.61842,41.60627,5.62246,48.00724S783.39448,244.573,783.39448,244.573l47.22874-12.80193-25.86336-43.73993s-3.37348-43.73992-3.37348-50.14089S747.41068,137.89028,747.41068,137.89028Z" transform="translate(-152 -76.01429)" fill="#a0616a"/><path d="M747.41068,137.89028s14.61842,41.60627,5.62246,48.00724S783.39448,244.573,783.39448,244.573l47.22874-12.80193-25.86336-43.73993s-3.37348-43.73992-3.37348-50.14089S747.41068,137.89028,747.41068,137.89028Z" transform="translate(-152 -76.01429)" opacity="0.1"/><path d="M722.87364,434.46832s-4.26731,53.34138,0,81.07889,10.66828,104.5491,10.66828,104.5491,0,145.08854,23.4702,147.22219,40.53945,4.26731,42.6731-4.26731-10.66827-12.80193-4.26731-17.06924,8.53462-19.20289,0-36.27213,0-189.8953,0-189.8953l40.53945,108.81641s4.26731,89.61351,8.53462,102.41544-4.26731,36.27213,10.66827,38.40579,32.00483-10.66828,40.53945-14.93559-12.80193-4.26731-8.53462-6.401,17.06924-8.53462,12.80193-10.66828-8.53462-104.54909-8.53462-104.54909S879.69728,414.1986,864.7617,405.664s-24.537,6.16576-24.537,6.16576Z" transform="translate(-152 -76.01429)" fill="#2f2e41"/><path d="M761.27943,758.78388v17.06924s-19.20289,46.39942,0,46.39942,34.13848,4.8083,34.13848-1.59266V763.05119Z" transform="translate(-152 -76.01429)" fill="#2f2e41"/><path d="M887.16508,758.75358v17.06924s19.20289,46.39941,0,46.39941-34.13848,4.80831-34.13848-1.59266V763.02089Z" transform="translate(-152 -76.01429)" fill="#2f2e41"/><circle cx="625.28185" cy="54.4082" r="38.40579" fill="#a0616a"/><path d="M765.54674,201.89993s10.66828,32.00482,27.73752,25.60386l17.06924-6.401L840.22467,425.9337s-23.47021,34.13848-57.60869,12.80193S765.54674,201.89993,765.54674,201.89993Z" transform="translate(-152 -76.01429)" fill="#dc25b7"/><path d="M795.41791,195.499l9.60145-20.26972s56.54186,26.67069,65.07648,35.20531,8.53462,21.33655,8.53462,21.33655l-14.93559,53.34137s4.26731,117.351,4.26731,121.61834,14.93559,27.73751,4.26731,19.20289-12.80193-17.06924-21.33655-4.26731-27.73751,27.73752-27.73751,27.73752Z" transform="translate(-152 -76.01429)" fill="#3f3d56"/><path d="M870.09584,349.12212l-6.401,59.74234s-38.40579,34.13848-29.87117,36.27214,12.80193-6.401,12.80193-6.401,14.93559,14.93559,23.47021,6.401S899.967,355.52309,899.967,355.52309Z" transform="translate(-152 -76.01429)" fill="#a0616a"/><path d="M778.1,76.14416c-8.51412-.30437-17.62549-.45493-24.80406,4.13321a36.31263,36.31263,0,0,0-8.5723,8.39153c-6.99153,8.83846-13.03253,19.95926-10.43553,30.92537l3.01633-1.1764a19.75086,19.75086,0,0,1-1.90515,8.46261c.42475-1.2351,1.84722.76151,1.4664,2.01085L733.543,139.792c5.46207-2.00239,12.25661,2.05189,13.08819,7.80969.37974-12.66123,1.6932-27.17965,11.964-34.59331,5.17951-3.73868,11.73465-4.88,18.04162-5.8935,5.81832-.935,11.91781-1.82659,17.49077.08886s10.31871,7.615,9.0553,13.37093c2.56964-.88518,5.44356.90566,6.71347,3.30856s1.33662,5.2375,1.37484,7.95506c2.73911,1.93583,5.85632-1.9082,6.97263-5.07112,2.62033-7.42434,4.94941-15.32739,3.53783-23.073s-7.72325-15.14773-15.59638-15.174a5.46676,5.46676,0,0,0,1.42176-3.84874l-6.48928-.5483a7.1723,7.1723,0,0,0,4.28575-2.25954C802.7981,84.73052,782.31323,76.29477,778.1,76.14416Z" transform="translate(-152 -76.01429)" fill="#2f2e41"/><path d="M776.215,189.098s-17.36929-17.02085-23.62023-15.97822S737.80923,189.098,737.80923,189.098s-51.20772,17.06924-49.07407,34.13848S714.339,323.51826,714.339,323.51826s19.2029,100.28179,2.13366,110.95006,81.07889,38.40579,83.21254,25.60386,6.401-140.82123,0-160.02412S776.215,189.098,776.215,189.098Z" transform="translate(-152 -76.01429)" fill="#3f3d56"/><path d="M850.89294,223.23648h26.38265S895.6997,304.31537,897.83335,312.85s6.401,49.07406,4.26731,49.07406-44.80675-8.53462-44.80675-2.13365Z" transform="translate(-152 -76.01429)" fill="#3f3d56"/><path d="M850,424.01429H749c-9.85608-45.34-10.67957-89.14649,0-131H850C833.70081,334.115,832.68225,377.62137,850,424.01429Z" transform="translate(-152 -76.01429)" fill="#f2f2f2"/><path d="M707.93806,368.325,737.80923,381.127s57.60868,8.53462,57.60868-14.93559-57.60868-10.66827-57.60868-10.66827L718.60505,349.383Z" transform="translate(-152 -76.01429)" fill="#a0616a"/><path d="M714.339,210.43455l-25.60386,6.401L669.53227,329.91923s-6.401,29.87117,4.26731,32.00482S714.339,381.127,714.339,381.127s4.26731-32.00483,12.80193-32.00483L705.8044,332.05288,718.60633,257.375Z" transform="translate(-152 -76.01429)" fill="#3f3d56"/><rect x="60.2485" y="352.90779" width="140" height="2" fill="#f2f2f2"/><rect x="98.2485" y="334.90779" width="2" height="18.5" fill="#f2f2f2"/><rect x="159.2485" y="334.90779" width="2" height="18.5" fill="#f2f2f2"/><rect x="109.2485" y="56.90779" width="140" height="2" fill="#f2f2f2"/><rect x="209.2485" y="58.40779" width="2" height="18.5" fill="#f2f2f2"/><rect x="148.2485" y="58.40779" width="2" height="18.5" fill="#f2f2f2"/><rect x="250.2485" y="253.90779" width="140" height="2" fill="#f2f2f2"/><rect x="350.2485" y="255.40779" width="2" height="18.5" fill="#f2f2f2"/><rect x="289.2485" y="255.40779" width="2" height="18.5" fill="#f2f2f2"/><rect x="12.2485" y="252.90779" width="140" height="2" fill="#f2f2f2"/><rect x="112.2485" y="254.40779" width="2" height="18.5" fill="#f2f2f2"/><rect x="51.2485" y="254.40779" width="2" height="18.5" fill="#f2f2f2"/><rect x="180.2485" y="152.90779" width="140" height="2" fill="#f2f2f2"/><rect x="218.2485" y="134.90779" width="2" height="18.5" fill="#f2f2f2"/><rect x="279.2485" y="134.90779" width="2" height="18.5" fill="#f2f2f2"/></svg>
